# xmcd CD database file
# Copyright (C) 1997 Ti Kan
#
# Track frame offsets:
#  150
#  26227
#  50745
#  76317
#  95577
#  110655
#  130300
#  151392
#  174652
#  194885
#
# Disc length: 2948 seconds
#
# Revision: 1
# Processed by: cddbd v1.4b41PL1 Copyright (c) Steve Scherf et al.
# Submitted via: CDWizzard Release:4.35
#
DISCID=910b820a
DTITLE=Claudio Baglioni - OLTRE disk 1
DYEAR=1900
DGENRE=
TTITLE0=Dagli il via
TTITLE1=Io dal mare
TTITLE2=Naso di falco
TTITLE3=Io lui e la cana femmina
TTITLE4=Stelle di stelle
TTITLE5=Vivi
TTITLE6=Le donne sono
TTITLE7=Domani mai
TTITLE8=Acqua dalla luna
TTITLE9=Tamburi lontani
EXTD=
EXTT0=
EXTT1=
EXTT2=
EXTT3=
EXTT4=
EXTT5=
EXTT6=
EXTT7=
EXTT8=
EXTT9=
PLAYORDER=
